<svg width="46" height="46" viewBox="0 0 46 46" fill="none" xmlns="http://www.w3.org/2000/svg">
<path d="M13.4163 37.375C11.308 37.375 9.58301 39.1 9.58301 41.2083H36.4163C36.4163 39.1 34.6913 37.375 32.583 37.375H24.9163V33.5416H30.6663C32.7747 33.5416 34.4997 31.8166 34.4997 29.7083H19.1663C15.9847 29.7083 13.4163 27.14 13.4163 23.9583C13.4163 21.8691 14.5472 20.0483 16.2147 19.0516C15.6588 18.2658 15.333 17.3266 15.333 16.2916C15.333 15.8891 15.4097 15.4866 15.5055 15.1033C12.0363 16.5408 9.58301 19.9716 9.58301 23.9583C9.58301 29.2483 13.8763 33.5416 19.1663 33.5416V37.375H13.4163Z" fill="white"/>
<path d="M20.2397 11.5191C22.8272 11.5766 24.9163 13.685 24.9163 16.2916C24.9163 17.7291 24.2838 18.9941 23.2872 19.8758L24.418 22.9808L26.2197 22.3291L26.8713 24.1308L30.4747 22.8275L29.823 21.0258L31.6247 20.3741L26.373 5.94163L24.5713 6.59329L23.9197 4.79163L20.3163 6.09496L20.968 7.89663L19.1663 8.56746L20.2397 11.5191Z" fill="white"/>
<path d="M20.1247 19.1666C21.7125 19.1666 22.9997 17.8794 22.9997 16.2916C22.9997 14.7038 21.7125 13.4166 20.1247 13.4166C18.5369 13.4166 17.2497 14.7038 17.2497 16.2916C17.2497 17.8794 18.5369 19.1666 20.1247 19.1666Z" fill="white"/>
</svg>
