<svg width="46" height="46" viewBox="0 0 46 46" fill="none" xmlns="http://www.w3.org/2000/svg">
<path d="M16.1 35.8417C16.8283 36.8 17.25 37.9884 17.25 39.2917C17.25 42.4734 14.6817 45.0417 11.5 45.0417C8.31833 45.0417 5.75 42.4734 5.75 39.2917C5.75 36.11 8.31833 33.5417 11.5 33.5417C12.3433 33.5417 13.1292 33.7142 13.8575 34.04L16.56 30.6475C14.7967 28.6734 14.0875 26.0667 14.4708 23.575L10.58 22.2717C9.545 23.8625 7.78167 24.9167 5.75 24.9167C2.56833 24.9167 0 22.3484 0 19.1667C0 15.985 2.56833 13.4167 5.75 13.4167C8.93167 13.4167 11.5 15.985 11.5 19.1667C11.5 19.3009 11.5 19.435 11.4808 19.5692L15.3717 20.8725C16.5983 18.5534 18.86 16.8667 21.5433 16.4259V12.2859C19.09 11.6342 17.25 9.39171 17.25 6.70837C17.25 3.52671 19.8183 0.958374 23 0.958374C26.1817 0.958374 28.75 3.52671 28.75 6.70837C28.75 9.39171 26.91 11.6342 24.4375 12.2859V16.4259C27.1208 16.8667 29.3825 18.5534 30.6092 20.8725L34.5 19.5692C34.5 19.435 34.5 19.3009 34.5 19.1667C34.5 15.985 37.0683 13.4167 40.25 13.4167C43.4317 13.4167 46 15.985 46 19.1667C46 22.3484 43.4317 24.9167 40.25 24.9167C38.2183 24.9167 36.455 23.8625 35.42 22.2909L31.5292 23.5942C31.9125 26.0667 31.2225 28.6734 29.44 30.6667L32.1425 34.0592C32.8708 33.7142 33.6567 33.5417 34.5 33.5417C37.6817 33.5417 40.25 36.11 40.25 39.2917C40.25 42.4734 37.6817 45.0417 34.5 45.0417C31.3183 45.0417 28.75 42.4734 28.75 39.2917C28.75 37.9884 29.1717 36.8 29.9 35.8417L27.1975 32.4492C24.61 33.8867 21.4283 33.9059 18.8217 32.4492L16.1 35.8417Z" fill="white"/>
</svg>
