<svg width="28" height="38" viewBox="0 0 28 38" fill="none" xmlns="http://www.w3.org/2000/svg">
<path d="M14.003 0.791626C13.1213 0.791626 12.2205 0.868293 11.3196 1.05996C6.02963 2.07579 1.81296 6.34996 0.816298 11.64C-0.103702 16.6425 1.7363 21.2425 5.0713 24.2133C5.89547 24.9416 6.3363 25.9575 6.3363 27.0308V31.4583C6.3363 33.5666 8.0613 35.2916 10.1696 35.2916H10.7063C11.3771 36.4416 12.5846 37.2083 14.003 37.2083C15.4213 37.2083 16.648 36.4416 17.2996 35.2916H17.8363C19.9446 35.2916 21.6696 33.5666 21.6696 31.4583V27.0308C21.6696 25.9766 22.0913 24.9416 22.8963 24.2325C25.6755 21.7791 27.4196 18.195 27.4196 14.2083C27.4196 6.79079 21.4205 0.791626 14.003 0.791626ZM17.8363 31.4583H10.1696V29.5416H17.8363V31.4583ZM17.8363 27.625H10.1696V25.7083H17.8363V27.625ZM14.9613 16.9108V21.875H13.0446V16.9108L9.53713 13.4225L10.898 12.0616L14.003 15.1666L17.108 12.0616L18.4688 13.4225L14.9613 16.9108Z" fill="white"/>
</svg>
